$MeshFormat
4.1 0 8
$EndMeshFormat
$PhysicalNames
2
1 1 "dirichlet"
1 2 "neumann"
$EndPhysicalNames
$Entities
8 8 1 0
1 -1 -1 0 0 
2 0 -1 0 0 
3 0 0 0 0 
4 1 0 0 0 
5 1 1 0 0 
6 0 1 0 0 
7 -1 1 0 0 
8 -1 0 0 0 
1 -1 -1 0 0 -1 0 1 2 2 1 -2 
2 0 -1 0 0 0 0 1 1 2 2 -3 
3 0 0 0 1 0 0 1 1 2 3 -4 
4 1 0 0 1 1 0 1 2 2 4 -5 
5 0 1 0 1 1 0 1 2 2 5 -6 
6 -1 1 0 0 1 0 1 2 2 6 -7 
7 -1 0 0 -1 1 0 1 2 2 7 -8 
8 -1 -1 0 -1 0 0 1 2 2 8 -1 
1 -1 -1 0 1 1 0 1 1 8 1 2 3 4 5 6 7 8 
$EndEntities
$Nodes
17 406 1 406
0 1 0 1
1
-1 -1 0
0 2 0 1
2
0 -1 0
0 3 0 1
3
0 0 0
0 4 0 1
4
1 0 0
0 5 0 1
5
1 1 0
0 6 0 1
6
0 1 0
0 7 0 1
7
-1 1 0
0 8 0 1
8
-1 0 0
1 1 0 9
9
10
11
12
13
14
15
16
17
-0.8999999999995836 -1 0
-0.7999999999999998 -1 0
-0.7000000000006934 -1 0
-0.6000000000013869 -1 0
-0.5000000000020587 -1 0
-0.4000000000016644 -1 0
-0.3000000000012483 -1 0
-0.2000000000008322 -1 0
-0.100000000000416 -1 0
1 2 0 9
18
19
20
21
22
23
24
25
26
0 -0.8999999999995836 0
0 -0.7999999999999998 0
0 -0.7000000000006934 0
0 -0.6000000000013869 0
0 -0.5000000000020587 0
0 -0.4000000000016644 0
0 -0.3000000000012483 0
0 -0.2000000000008322 0
0 -0.100000000000416 0
1 3 0 9
27
28
29
30
31
32
33
34
35
0.09999999999981467 0 0
0.1999999999995579 0 0
0.2999999999992664 0 0
0.3999999999989749 0 0
0.4999999999986943 0 0
0.5999999999989468 0 0
0.69999999999921 0 0
0.7999999999994734 0 0
0.8999999999997368 0 0
1 4 0 9
36
37
38
39
40
41
42
43
44
1 0.09999999999981467 0
1 0.1999999999995579 0
1 0.2999999999992664 0
1 0.3999999999989749 0
1 0.4999999999986943 0
1 0.5999999999989468 0
1 0.69999999999921 0
1 0.7999999999994734 0
1 0.8999999999997368 0
1 5 0 9
45
46
47
48
49
50
51
52
53
0.8999999999995836 1 0
0.7999999999999998 1 0
0.7000000000006934 1 0
0.6000000000013869 1 0
0.5000000000020587 1 0
0.4000000000016644 1 0
0.3000000000012483 1 0
0.2000000000008322 1 0
0.100000000000416 1 0
1 6 0 9
54
55
56
57
58
59
60
61
62
-0.09999999999981467 1 0
-0.1999999999995579 1 0
-0.2999999999992664 1 0
-0.3999999999989749 1 0
-0.4999999999986943 1 0
-0.5999999999989468 1 0
-0.69999999999921 1 0
-0.7999999999994734 1 0
-0.8999999999997368 1 0
1 7 0 9
63
64
65
66
67
68
69
70
71
-1 0.8999999999995836 0
-1 0.7999999999999998 0
-1 0.7000000000006934 0
-1 0.6000000000013869 0
-1 0.5000000000020587 0
-1 0.4000000000016644 0
-1 0.3000000000012483 0
-1 0.2000000000008322 0
-1 0.100000000000416 0
1 8 0 9
72
73
74
75
76
77
78
79
80
-1 -0.09999999999981467 0
-1 -0.1999999999995579 0
-1 -0.2999999999992664 0
-1 -0.3999999999989749 0
-1 -0.4999999999986943 0
-1 -0.5999999999989468 0
-1 -0.69999999999921 0
-1 -0.7999999999994734 0
-1 -0.8999999999997368 0
2 1 0 326
81
82
83
84
85
86
87
88
89
90
91
92
93
94
95
96
97
98
99
100
101
102
103
104
105
106
107
108
109
110
111
112
113
114
115
116
117
118
119
120
121
122
123
124
125
126
127
128
129
130
131
132
133
134
135
136
137
138
139
140
141
142
143
144
145
146
147
148
149
150
151
152
153
154
155
156
157
158
159
160
161
162
163
164
165
166
167
168
169
170
171
172
173
174
175
176
177
178
179
180
181
182
183
184
185
186
187
188
189
190
191
192
193
194
195
196
197
198
199
200
201
202
203
204
205
206
207
208
209
210
211
212
213
214
215
216
217
218
219
220
221
222
223
224
225
226
227
228
229
230
231
232
233
234
235
236
237
238
239
240
241
242
243
244
245
246
247
248
249
250
251
252
253
254
255
256
257
258
259
260
261
262
263
264
265
266
267
268
269
270
271
272
273
274
275
276
277
278
279
280
281
282
283
284
285
286
287
288
289
290
291
292
293
294
295
296
297
298
299
300
301
302
303
304
305
306
307
308
309
310
311
312
313
314
315
316
317
318
319
320
321
322
323
324
325
326
327
328
329
330
331
332
333
334
335
336
337
338
339
340
341
342
343
344
345
346
347
348
349
350
351
352
353
354
355
356
357
358
359
360
361
362
363
364
365
366
367
368
369
370
371
372
373
374
375
376
377
378
379
380
381
382
383
384
385
386
387
388
389
390
391
392
393
394
395
396
397
398
399
400
401
402
403
404
405
406
-0.3493571333613323 0.9154640981951354 0
-0.9133974596212276 0.3500000000016355 0
0.0499999999999149 0.08660254037825726 0
-0.04999999999991106 0.08660254037827655 0
-0.0866025403783237 -0.4500000000018615 0
0.4475303635257325 0.9180925119508323 0
-0.9133974596203879 -0.1499999999993523 0
0.3499999999993525 0.08660254037812765 0
0.1475303635247443 0.9218042961032609 0
-0.9133974596198078 -0.4499999999987723 0
-0.08436963044194509 -0.1538675134607085 0
4.166586484427656e-14 0.1732050807565733 0
-0.09999999999984312 0.1732050807565918 0
0.9152217186779579 0.4531597093704716 0
-0.04999999999985098 0.259807621134955 0
-0.1499999999997918 0.259807621134963 0
-0.1999999999997731 0.1732050807565823 0
-0.2499999999997496 0.2598076211349918 0
-0.5500000000017228 -0.9133974596221474 0
-0.2999999999997477 0.1744016935851057 0
-0.09999999999978773 0.3464101615133539 0
1.835583603105291e-13 0.3464101615133132 0
-0.6506428666370215 0.9154640981947613 0
-0.3499999999997399 0.2600070566064404 0
-0.3999999999997535 0.1746343683017571 0
-0.04999999999976009 0.4330127018917588 0
0.05000000000025058 0.4330127018917027 0
0.6499999999991438 0.08660254037844282 0
-0.4499999999997696 0.2600790749711167 0
-0.3999999999997438 0.3464502031212832 0
-0.4999999999997849 0.1734885376534189 0
-0.4538675134593541 0.09031752055062625 0
-0.9133974596221568 0.6500000000010402 0
-0.4977020295474569 0.3477888112800581 0
-0.4496170049244057 0.4332491504543633 0
2.879698794237365e-13 0.5196152422702052 0
0.1000000000003151 0.5196152422701276 0
-0.3500000000014563 -0.9133974596212052 0
0.9133974596213918 0.6499999999990216 0
-0.9133974596213328 -0.6499999999990785 0
-0.9133974596205082 0.05000000000068872 0
-0.1482359739454194 0.921737490712397 0
-0.09999999999974202 0.5196152422702536 0
0.654974798076161 0.8961493466902666 0
-0.08660254037784325 -0.6500000000010401 0
0.1500000000002615 0.4330127018916244 0
0.2000000000003205 0.5196152422700214 0
0.2500000000002263 0.4330127018915598 0
0.3000000000002797 0.5196152422699207 0
0.3500000000001735 0.4330127018914919 0
0.4000000000002218 0.5196152422698378 0
0.4500000000001031 0.4330127018914081 0
0.500000000000149 0.5196152422697488 0
-0.5472552019595215 0.4346086188060488 0
-0.4994787011471973 0.519920636516513 0
0.5500000000000381 0.4330127018913073 0
-0.5499999999997895 0.08660254037804216 0
-0.5045120990359597 0.002852073298654289 0
-0.5964663564869401 0.1845365345412895 0
-0.5968395824348016 0.0004753455498670513 0
-0.5500180208231766 -0.08616763185364543 0
-0.4413591114108503 -0.07219752944508709 0
-0.5017225647438209 -0.1689075017912321 0
-0.5951618427363419 -0.1759649576167057 0
-0.5499999999997409 -0.2598076211357813 0
-0.4396127095307195 -0.2559650536479256 0
-0.5005667553738768 -0.3470964674586652 0
-0.5994556505176637 0.5199321274638009 0
0.6000000000000812 0.5196152422696436 0
-0.7459788032326977 -0.9204077431037927 0
0.9103703875044293 0.2413274345286321 0
-0.5937771591251906 -0.3438953849223197 0
-0.5484003330418994 -0.4323286457168244 0
-0.4521258185215714 -0.4343398107131163 0
-0.4999999999998926 -0.5196152422706747 0
-0.4003543030870652 -0.519836427074149 0
-0.5999999999996353 -0.5196152422706327 0
0.3524696364765594 0.6015227303190072 0
-0.04999999999969457 0.6062177826487006 0
-0.1499999999996947 0.6062177826487634 0
0.5500000000002023 0.6062177826480899 0
-0.4500590505145675 -0.6062546467828351 0
-0.5498223919440229 0.6063214958888032 0
-0.4498835155150517 0.606285967229935 0
0.1000000000000332 0.1732050807565397 0
0.4999999999999822 0.3464101615129819 0
0.5999999999999268 0.3464101615128586 0
-0.2444648295718274 0.09231580823154809 0
0.1475303635244177 0.601522730319145 0
-0.4999509845763857 0.6928489726641948 0
-0.3467137289714289 -0.4169981352460539 0
-0.6531706958976594 0.4170502078863162 0
-0.3500688922672008 -0.6062607908051869 0
-0.6498796737435029 0.6062878823877471 0
0.6481225873293111 0.6073017073588656 0
-0.3499361674872155 0.433058783587022 0
0.3000000000001267 0.3464101615131177 0
-0.3999724166817616 0.6928364620637369 0
0.5996870978884302 0.6930009771448896 0
0.7039994339432287 0.6895439201857507 0
-0.09999999999964677 0.6928203230271615 0
-0.40002132379713 -0.6928336350755306 0
-0.5000133957185549 -0.6928286857241971 0
-0.3000150360110838 -0.6928297097279834 0
0.6926308205502378 0.5252022668462155 0
0.8533030857430108 0.9142147613826986 0
-0.9170502595853858 0.8494067683005379 0
-0.08294974041466377 -0.8494067683005244 0
-0.002469636475612384 0.6913944777429447 0
-0.1999999999996425 0.6928203230272679 0
0.5024174861243946 0.6914245867620101 0
-0.2499999999997496 0.6062177826489211 0
0.5499999999997448 0.2598076211345579 0
0.4499999999998718 0.2598076211346085 0
0.6499999999997027 0.2598076211345781 0
0.6999999999998743 0.3464101615127713 0
-0.2473430874157921 -0.6019210109724646 0
-0.1060023094352832 0.001000384905244208 0
-0.917050259584959 -0.8494067683003277 0
0.8495762630715378 0.08467720450568848 0
-0.4499872335429019 0.7761360605087171 0
-0.04794196960301719 0.7777593772407038 0
0.5500000000003513 0.7794228634048059 0
-0.4500000000001658 -0.7794228634053629 0
0.4999999999993668 0.1732050807562395 0
0.0449921260353948 0.7695178701720016 0
-0.5499897030197702 0.775585570186494 0
0.7470993649051514 0.2614823035872084 0
0.7968055812567114 0.346619856511496 0
0.450287795968057 0.767580964879225 0
-0.5499999999999006 -0.7794228634053202 0
-0.6000022326194367 -0.6928217168099922 0
-0.6499999999995252 -0.7794228634052521 0
-0.7000003721026143 -0.6928205553242297 0
-0.7481067856570502 -0.7782898996268111 0
-0.3499982494368682 0.7775724403101337 0
-0.0004916405944436278 0.8547573404875082 0
-0.4999961560935192 0.8480243814676109 0
-0.1847542289483328 -0.6963105120155548 0
-0.2509681437075746 -0.7785024447795494 0
-0.8145979540777581 -0.6967611768001687 0
-0.7551039549926287 -0.6044566037417836 0
-0.9133974596215828 0.4500000000018574 0
-0.827677793460687 0.3984708169999502 0
-0.8269420649452385 0.2997451361681491 0
-0.8127418316309837 0.5093041062734202 0
-0.740192378863877 0.3500000000024083 0
-0.7440272395612002 0.2499575226965411 0
-0.8274585869751538 0.1999504431450133 0
-0.7439469041794836 0.1478714123205263 0
-0.6495029578662802 0.287960350133279 0
-0.8275312847496383 0.0996369759116833 0
-0.7401923788621885 0.05000000000175803 0
-0.8269176468258839 -6.050401380146864e-05 0
-0.7401923788616521 -0.04999999999833832 0
-0.8268153738382835 -0.1000100840013874 0
-0.742956998864462 -0.1464169779539578 0
-0.8272590983406799 -0.1994045103251446 0
-0.7326045728352266 -0.2542444924981362 0
-0.8256076480853658 -0.3006081671363522 0
-0.7403020316552494 -0.3609821619142065 0
-0.8266153161789522 -0.4019317215073926 0
-0.7441524254437346 -0.447407227201131 0
-0.8131281571984597 -0.5121050943038649 0
-0.9133974596200145 0.1500000000009274 0
-0.9133440445144223 -0.5505251758939378 0
-0.913849798381223 -0.7493613241829562 0
-0.4500000000015894 -0.9133974596213591 0
-0.08660254037861956 -0.3500000000017544 0
-0.1723222065390389 -0.3984708170000082 0
-0.1730579350542648 -0.2997451361683713 0
-0.1868786094283661 -0.5086902817483062 0
-0.2598076211355167 -0.3500000000023684 0
-0.2597830968520378 -0.2499575226967349 0
-0.344352523452935 -0.3045485460441768 0
-0.3448207281193998 -0.2037884414689045 0
-0.2595386281897454 -0.1506243273624113 0
-0.3451490844335726 -0.1064783041168058 0
-0.2651819887214182 -0.05519988569396488 0
-0.3484186290804301 -0.009081210409321807 0
0.3471187574462873 0.9156058136271243 0
0.2491081868293127 0.9151666580358931 0
0.1969701219172355 0.8336034938646573 0
0.2963965412236412 0.8300184523672793 0
0.2500000000015144 0.7401923788638972 0
0.1477117717600585 0.7473048748472233 0
0.3496052782382442 0.750842122429711 0
-0.2999951110195297 0.6925146090174794 0
-0.2499997119449052 0.7776273172077096 0
-0.254021196768504 -0.920407743103367 0
0.3999999999995388 0.1732050807563466 0
0.9137015027976045 0.5505266182274399 0
0.8313918561462087 0.5931329776484197 0
0.8126247325390435 0.6914592672911873 0
0.8361637271999821 0.4990566966865462 0
0.9133974596211926 0.7499999999990896 0
0.826794919242669 0.7999999999990003 0
0.7499293771780975 0.08628165106618046 0
0.6577344845229529 0.7813944848432658 0
-0.3499999999996918 0.6062177826490605 0
0.754609630654992 0.4449728366328739 0
-0.6999999999998259 0.5196152422704444 0
-0.7503086649858748 0.6034746461646163 0
-0.7000313897880919 0.6923748169030501 0
-0.814916939366178 0.6964674752108878 0
-0.7490147033598729 0.7784843489566691 0
0.1000000000002031 0.3464101615132569 0
0.2000000000002007 0.3464101615131867 0
0.250000000000096 0.2598076211347926 0
0.1500000000001706 0.2598076211348415 0
0.1999999999998683 0.1732050807565021 0
-0.2999893612476519 0.3464577546425173 0
-0.2499967690861931 0.4330167659462 0
-0.9131696472509901 -0.3504233147733538 0
-0.08620586443873743 -0.2506021082724921 0
-0.5500124464752555 -0.6062255527512379 0
0.6495400752008582 0.4359372284442783 0
0.4532841569096921 0.603776805931645 0
-0.5999456905119274 0.6921402669060127 0
-0.7460859476715516 0.9207521828656895 0
-0.9134213233175106 -0.05001176466894451 0
0.2500000000006069 0.5981143511150516 0
0.04670715136572315 0.6037717877621862 0
0.1499999999997073 0.08660254037821086 0
-0.2999888227620774 0.5196235998953422 0
-0.1471873104484659 0.7741513056825938 0
-0.249713465155118 0.9193066446461237 0
-0.3000000000003736 -0.5196152422707647 0
-0.9133974596206341 0.2500000000011769 0
-0.3500000000003751 -0.7794228634054656 0
0.4000000000000421 0.3464101615130396 0
-0.1499994615141666 0.4330133792342231 0
0.3499999999999145 0.2598076211347493 0
-0.0866025403783206 -0.5500000000014509 0
0.5500000000014508 0.9133974596216795 0
-0.5466472535310067 0.2680373122080232 0
0.8989620500646556 0.3471315674982371 0
-0.1999975986412234 0.3464188839343748 0
-0.1999982206382221 0.5196168016777005 0
-0.3998173686392732 0.5197259867220393 0
-0.6500000000010401 -0.9133974596221568 0
-0.6499558121041522 0.7774583079149944 0
0.05000000000012292 0.2598076211349413 0
-0.9133974596218163 -0.2499999999993643 0
-0.9133974596216795 0.5500000000014508 0
-0.913902962596256 0.7493123739188562 0
-0.08604223212287117 -0.7492862133862985 0
0.7583209987608136 0.9074923206946035 0
-0.1499999999997712 0.08660254037828732 0
-0.1726933726224537 -0.2007994346604467 0
-0.6508531676981012 -0.6078132964289253 0
0.249999999999594 0.08660254037823863 0
0.2999999999997273 0.1732050807564595 0
-0.1643706721806958 -0.08952764965648907 0
0.4499999999990417 0.08660254037802191 0
0.5499999999989853 0.08660254037805881 0
0.6995047903467806 0.1734307129465263 0
0.8150435783444701 0.1817084047216744 0
0.5999174650572873 0.1732426861214005 0
-0.6541674044677104 -0.09274935678873102 0
-0.6547013696524925 0.09564083325656327 0
-0.6567409337750628 -0.4236388922955887 0
-0.6361814434625257 -0.2592312013652747 0
-0.1559066101394872 -0.9061456560229292 0
0.9176207026983014 0.8463372331656033 0
-0.8441086962092426 0.9061948617032665 0
-0.8440933898606436 -0.9061456560228528 0
0.9167540441069633 0.1491294368897231 0
0.7348235865274698 0.8204174826695277 0
-0.3495916193147825 0.07941237825243576 0
-0.2538134663315029 -0.4397687761040282 0
-0.7461360097835019 0.4398367247942232 0
-0.1619468829963871 -0.7999999999999785 0
-0.838053117003816 0.7999999999999785 0
-0.8380531170032886 -0.7999999999994793 0
-0.7012134741920277 -0.5266517032896139 0
-0.1978873750567358 0.008273541510994773 0
-0.158436201309731 -0.6013843609477633 0
-0.8404604749013772 0.6013208896649449 0
-0.8419143140809204 -0.6027696101477666 0
0.7398324236460379 0.6116741140679642 0
-0.4137878227134104 -0.3543705646693202 0
-0.5788556277603849 0.3510890600627451 0
-0.4351821811436235 0.9219525313266647 0
-0.09897614909846883 0.8513297902190446 0
0.09142186561254544 0.6826602609875736 0
0.0977854571071996 0.8433584901919838 0
0.3946876156135193 0.8373083339337737 0
-0.5603454762002205 0.9219519074876698 0
0.4051937046398095 0.6822129636010666 0
0.5910927839398047 0.8448513358509908 0
-0.7000000000006935 -0.8464101615141256 0
-0.6000000000011105 -0.8464101615140824 0
-0.1990187684319406 0.8484271183302785 0
-0.2999170193112883 0.8466789925275684 0
0.4972664265081526 0.8434422449402179 0
-0.5000000000013519 -0.8464101615138997 0
-0.3000000000004842 -0.8464101615131523 0
-0.4000000000009037 -0.8464101615134073 0
-0.6989794165509422 0.8466864321685142 0
0.3012114365595411 0.674348271180735 0
0.1979792395764473 0.6740238112189376 0
-0.04986052986133192 0.9308555640393275 0
0.04957173896069578 0.9290641963540013 0
-0.5999999999998452 0.8462597977286187 0
-0.3999999999998138 0.8462597977283288 0
0.8336561924150836 0.2756539133694496 0
0.8377404735811993 0.4189582562285296 0
-0.4167003906265833 -0.1618553629882072 0
-0.6764518569686673 0.2000000000024218 0
0.7557508469915437 0.7490973961946942 0
-0.6790125086355774 2.038101543372059e-12 0
-0.9267949192429046 -0.9267949192429458 0
0.926794919243098 0.9267949192431389 0
-0.9267949192431389 0.926794919243098 0
-0.07320508075687601 -0.9267949192431241 0
0.9267949192428433 0.07320508075703645 0
-0.07261768010491831 -0.07197483161245391 0
-0.4232050807573211 0.01339745962158504 0
-0.6742678712511797 -0.1897526275855547 0
-0.7752464191508747 -0.8502506920534123 0
-0.2245685667224875 -0.8502932010837952 0
-0.775248376159085 0.8504235651388236 0
0.7699466485492797 0.540069233907974 0
-0.671921228170651 -0.3283984265991051 0
-0.2771852823350442 0.01990100788575012 0
$EndNodes
$Elements
9 810 1 810
1 1 1 10
1 1 9 
2 9 10 
3 10 11 
4 11 12 
5 12 13 
6 13 14 
7 14 15 
8 15 16 
9 16 17 
10 17 2 
1 2 1 10
11 2 18 
12 18 19 
13 19 20 
14 20 21 
15 21 22 
16 22 23 
17 23 24 
18 24 25 
19 25 26 
20 26 3 
1 3 1 10
21 3 27 
22 27 28 
23 28 29 
24 29 30 
25 30 31 
26 31 32 
27 32 33 
28 33 34 
29 34 35 
30 35 4 
1 4 1 10
31 4 36 
32 36 37 
33 37 38 
34 38 39 
35 39 40 
36 40 41 
37 41 42 
38 42 43 
39 43 44 
40 44 5 
1 5 1 10
41 5 45 
42 45 46 
43 46 47 
44 47 48 
45 48 49 
46 49 50 
47 50 51 
48 51 52 
49 52 53 
50 53 6 
1 6 1 10
51 6 54 
52 54 55 
53 55 56 
54 56 57 
55 57 58 
56 58 59 
57 59 60 
58 60 61 
59 61 62 
60 62 7 
1 7 1 10
61 7 63 
62 63 64 
63 64 65 
64 65 66 
65 66 67 
66 67 68 
67 68 69 
68 69 70 
69 70 71 
70 71 8 
1 8 1 10
71 8 72 
72 72 73 
73 73 74 
74 74 75 
75 75 76 
76 76 77 
77 77 78 
78 78 79 
79 79 80 
80 80 1 
2 1 2 730
81 197 252 308 
82 226 282 283 
83 277 186 328 
84 124 279 349 
85 279 124 371 
86 171 253 255 
87 172 227 231 
88 244 222 356 
89 151 338 348 
90 231 139 316 
91 266 263 367 
92 139 231 390 
93 338 151 387 
94 277 328 349 
95 142 258 260 
96 125 219 327 
97 113 285 326 
98 221 120 247 
99 142 260 399 
100 274 180 361 
101 206 266 367 
102 171 255 362 
103 172 231 363 
104 364 58 369 
105 180 274 391 
106 252 197 358 
107 222 244 360 
108 226 283 359 
109 218 364 369 
110 327 219 353 
111 326 285 354 
112 221 247 355 
113 243 244 356 
114 308 252 351 
115 282 226 352 
116 146 255 256 
117 328 124 349 
118 334 198 357 
119 241 243 342 
120 273 274 361 
121 198 334 398 
122 241 342 405 
123 253 171 351 
124 227 172 352 
125 219 125 358 
126 285 113 359 
127 120 221 360 
128 338 200 348 
129 317 209 387 
130 157 342 356 
131 230 341 390 
132 146 256 389 
133 186 277 345 
134 263 89 367 
135 230 233 341 
136 235 237 340 
137 199 347 355 
138 346 187 354 
139 344 188 353 
140 219 220 353 
141 285 286 354 
142 215 221 355 
143 86 368 376 
144 306 365 374 
145 366 169 382 
146 158 370 381 
147 279 180 391 
148 341 139 390 
149 342 243 356 
150 209 317 388 
151 151 317 387 
152 255 146 362 
153 231 316 363 
154 349 279 391 
155 355 347 401 
156 346 354 403 
157 344 353 402 
158 340 237 400 
159 281 275 404 
160 185 281 404 
161 368 210 376 
162 266 366 382 
163 365 122 374 
164 370 267 381 
165 76 77 246 
166 242 90 244 
167 74 75 294 
168 240 238 324 
169 238 87 324 
170 236 87 238 
171 87 236 301 
172 90 76 246 
173 244 90 246 
174 77 120 246 
175 90 242 294 
176 236 234 301 
177 75 90 294 
178 74 294 324 
179 234 121 301 
180 294 240 324 
181 232 121 234 
182 121 232 245 
183 70 71 245 
184 71 121 245 
185 70 245 309 
186 13 14 248 
187 99 13 248 
188 25 91 295 
189 295 91 330 
190 264 263 265 
191 69 70 309 
192 262 263 264 
193 52 89 262 
194 262 89 263 
195 291 165 304 
196 40 41 272 
197 49 50 86 
198 22 23 85 
199 94 40 272 
200 290 165 291 
201 120 78 247 
202 216 268 269 
203 272 273 275 
204 192 190 268 
205 67 68 223 
206 264 265 267 
207 14 118 248 
208 94 272 275 
209 268 190 269 
210 82 69 309 
211 42 43 276 
212 24 25 295 
213 21 22 314 
214 48 49 315 
215 165 290 323 
216 14 15 118 
217 71 8 121 
218 51 52 262 
219 265 263 266 
220 79 199 247 
221 223 224 226 
222 332 88 333 
223 118 15 270 
224 108 33 278 
225 8 72 301 
226 192 268 280 
227 330 91 334 
228 223 82 224 
229 41 119 272 
230 66 67 325 
231 77 78 120 
232 88 271 333 
233 79 80 199 
234 72 87 301 
235 290 287 323 
236 261 262 264 
237 162 155 296 
238 85 249 250 
239 235 234 236 
240 281 185 297 
241 204 183 211 
242 85 250 252 
243 201 178 216 
244 311 177 313 
245 155 157 296 
246 282 174 283 
247 41 42 119 
248 235 236 237 
249 272 119 273 
250 274 276 277 
251 177 128 288 
252 280 164 320 
253 205 194 271 
254 237 236 238 
255 22 85 314 
256 49 86 315 
257 233 234 235 
258 34 200 278 
259 269 190 306 
260 177 288 289 
261 78 79 247 
262 179 180 279 
263 305 280 320 
264 261 51 262 
265 305 293 319 
266 34 35 200 
267 143 141 144 
268 233 232 234 
269 148 174 282 
270 143 144 145 
271 205 271 335 
272 183 162 296 
273 170 178 201 
274 288 287 290 
275 95 92 323 
276 128 126 288 
277 32 33 108 
278 196 208 209 
279 196 281 297 
280 211 183 212 
281 176 293 305 
282 147 152 153 
283 160 159 181 
284 230 232 233 
285 15 16 270 
286 237 238 239 
287 291 332 333 
288 283 284 285 
289 146 145 147 
290 227 228 231 
291 224 225 227 
292 154 153 155 
293 177 289 313 
294 103 60 300 
295 126 287 288 
296 147 145 152 
297 193 194 205 
298 207 201 218 
299 239 238 240 
300 170 164 178 
301 161 179 191 
302 126 107 287 
303 158 131 298 
304 123 159 160 
305 119 42 276 
306 138 140 141 
307 289 290 291 
308 312 293 318 
309 228 229 230 
310 127 126 128 
311 60 61 300 
312 114 115 134 
313 293 292 318 
314 160 181 190 
315 131 133 298 
316 196 209 281 
317 33 34 278 
318 117 126 127 
319 110 104 292 
320 185 149 297 
321 117 107 126 
322 161 175 179 
323 192 305 319 
324 154 155 156 
325 134 135 148 
326 173 184 197 
327 203 179 279 
328 92 165 323 
329 190 181 306 
330 142 141 143 
331 68 69 82 
332 312 123 319 
333 127 128 129 
334 178 164 280 
335 253 254 255 
336 191 179 203 
337 167 195 196 
338 23 24 249 
339 211 212 213 
340 167 196 297 
341 242 240 294 
342 241 240 242 
343 116 117 303 
344 115 110 176 
345 107 102 287 
346 271 313 333 
347 148 163 174 
348 104 98 292 
349 182 162 183 
350 147 153 154 
351 289 288 290 
352 179 175 180 
353 52 53 89 
354 25 26 91 
355 283 174 284 
356 125 21 314 
357 121 8 301 
358 143 145 146 
359 124 48 315 
360 196 195 208 
361 239 240 241 
362 216 178 268 
363 230 229 232 
364 273 119 274 
365 197 184 219 
366 3 27 83 
367 138 137 140 
368 181 189 202 
369 114 110 115 
370 175 149 185 
371 241 242 243 
372 194 311 313 
373 129 131 158 
374 59 60 103 
375 227 225 228 
376 182 183 204 
377 134 115 135 
378 130 128 177 
379 129 130 131 
380 192 280 305 
381 136 167 297 
382 181 202 306 
383 117 169 303 
384 243 242 244 
385 149 136 297 
386 291 304 332 
387 250 251 253 
388 156 173 308 
389 155 153 157 
390 173 197 308 
391 286 284 322 
392 176 110 292 
393 159 116 303 
394 123 116 159 
395 129 128 130 
396 133 132 136 
397 45 46 186 
398 115 176 320 
399 160 190 192 
400 165 83 304 
401 293 312 319 
402 133 161 298 
403 258 259 260 
404 296 157 331 
405 202 206 217 
406 176 305 320 
407 176 292 293 
408 39 40 94 
409 113 66 325 
410 284 299 322 
411 83 27 304 
412 181 159 189 
413 131 132 133 
414 133 136 149 
415 100 104 105 
416 130 177 311 
417 105 109 111 
418 131 130 132 
419 97 98 100 
420 191 203 210 
421 156 155 162 
422 75 76 90 
423 228 225 229 
424 161 191 298 
425 56 57 81 
426 105 111 112 
427 224 82 225 
428 163 170 299 
429 134 148 172 
430 29 30 88 
431 193 166 194 
432 170 207 299 
433 133 149 161 
434 93 96 97 
435 255 254 256 
436 27 28 304 
437 129 158 302 
438 194 166 311 
439 136 166 167 
440 138 141 142 
441 101 312 318 
442 18 19 188 
443 205 335 336 
444 156 162 173 
445 258 257 259 
446 172 148 282 
447 54 55 122 
448 171 156 308 
449 109 110 114 
450 116 107 117 
451 72 73 87 
452 68 82 223 
453 161 149 175 
454 127 129 302 
455 101 95 102 
456 285 284 286 
457 167 193 195 
458 292 98 318 
459 271 194 313 
460 55 56 307 
461 148 135 163 
462 112 137 138 
463 109 104 110 
464 123 160 319 
465 163 164 170 
466 136 132 166 
467 63 64 187 
468 56 81 307 
469 92 83 165 
470 256 257 258 
471 96 95 101 
472 174 163 299 
473 3 83 84 
474 106 116 123 
475 173 182 184 
476 38 39 317 
477 39 94 317 
478 96 101 318 
479 12 13 99 
480 117 127 169 
481 253 251 254 
482 154 156 171 
483 106 102 107 
484 250 249 251 
485 97 100 168 
486 101 106 312 
487 73 74 324 
488 101 102 106 
489 184 182 310 
490 274 119 276 
491 122 55 307 
492 189 159 303 
493 132 130 311 
494 163 135 164 
495 232 229 245 
496 219 184 220 
497 182 204 310 
498 102 95 323 
499 212 183 296 
500 111 109 316 
501 106 107 116 
502 229 225 309 
503 249 24 295 
504 137 111 139 
505 84 83 92 
506 170 201 207 
507 97 96 98 
508 106 123 312 
509 139 111 316 
510 112 111 137 
511 100 98 104 
512 50 51 261 
513 105 104 109 
514 268 178 280 
515 37 38 151 
516 67 223 325 
517 169 127 302 
518 256 254 257 
519 166 132 311 
520 287 102 323 
521 213 214 215 
522 160 192 319 
523 220 184 310 
524 167 166 193 
525 337 195 339 
526 173 162 182 
527 299 207 322 
528 213 212 214 
529 11 12 321 
530 85 23 249 
531 245 229 309 
532 221 214 222 
533 284 174 299 
534 109 114 316 
535 98 96 318 
536 84 92 93 
537 164 135 320 
538 93 92 95 
539 93 95 96 
540 225 82 309 
541 135 115 320 
542 202 189 206 
543 151 38 317 
544 10 11 150 
545 87 73 324 
546 271 88 335 
547 84 93 329 
548 12 99 321 
549 29 88 332 
550 304 28 332 
551 93 97 329 
552 215 214 221 
553 97 168 329 
554 254 251 330 
555 257 254 330 
556 3 84 198 
557 150 11 321 
558 65 66 113 
559 86 50 261 
560 28 29 332 
561 251 249 295 
562 20 21 125 
563 47 48 124 
564 46 47 328 
565 313 289 333 
566 64 65 326 
567 88 30 335 
568 19 20 327 
569 259 257 334 
570 186 46 328 
571 289 291 333 
572 222 214 331 
573 198 84 329 
574 85 252 314 
575 336 108 339 
576 212 296 331 
577 108 337 339 
578 188 19 327 
579 187 64 326 
580 257 330 334 
581 214 212 331 
582 251 295 330 
583 32 108 336 
584 223 226 325 
585 30 31 335 
586 65 113 326 
587 47 124 328 
588 20 125 327 
589 335 31 336 
590 108 278 337 
591 195 193 339 
592 31 32 336 
593 205 336 339 
594 208 195 337 
595 278 200 338 
596 193 205 339 
597 208 337 338 
598 337 278 338 
599 259 334 357 
600 141 140 340 
601 140 137 341 
602 266 206 366 
603 267 210 368 
604 210 267 370 
605 144 141 340 
606 137 139 341 
607 157 153 342 
608 145 144 343 
609 277 276 345 
610 43 44 345 
611 16 17 344 
612 61 62 346 
613 9 10 347 
614 36 37 348 
615 105 112 350 
616 168 100 350 
617 350 112 399 
618 252 250 351 
619 226 224 352 
620 153 152 342 
621 331 157 356 
622 329 168 357 
623 244 246 360 
624 314 252 358 
625 325 226 359 
626 197 219 358 
627 283 285 359 
628 221 222 360 
629 152 145 343 
630 175 185 361 
631 276 43 345 
632 270 16 344 
633 10 150 347 
634 300 61 346 
635 37 151 348 
636 144 340 400 
637 146 147 362 
638 154 171 362 
639 134 172 363 
640 316 114 363 
641 264 267 368 
642 58 59 369 
643 306 202 365 
644 303 169 366 
645 57 58 364 
646 86 261 368 
647 158 298 370 
648 206 189 366 
649 191 210 370 
650 260 350 399 
651 89 53 384 
652 218 201 386 
653 207 218 385 
654 54 122 383 
655 100 105 350 
656 208 338 387 
657 143 146 389 
658 317 94 388 
659 171 308 351 
660 172 282 352 
661 231 228 390 
662 239 241 405 
663 1 9 393 
664 334 91 398 
665 5 45 394 
666 26 3 398 
667 7 63 395 
668 4 36 397 
669 35 4 397 
670 2 18 396 
671 3 198 398 
672 80 1 393 
673 44 5 394 
674 62 7 395 
675 138 142 399 
676 17 2 396 
677 258 142 389 
678 168 350 406 
679 343 239 405 
680 250 253 351 
681 224 227 352 
682 188 327 353 
683 247 199 355 
684 187 326 354 
685 222 331 356 
686 198 329 357 
687 125 314 358 
688 113 325 359 
689 246 120 360 
690 256 258 389 
691 180 175 361 
692 342 152 405 
693 350 260 406 
694 275 281 388 
695 147 154 362 
696 114 134 363 
697 364 218 386 
698 367 89 384 
699 122 365 383 
700 218 369 385 
701 340 140 392 
702 140 341 392 
703 81 57 364 
704 202 217 365 
705 189 303 366 
706 217 206 367 
707 261 264 368 
708 59 103 369 
709 298 191 370 
710 281 209 388 
711 235 340 392 
712 341 233 392 
713 383 217 384 
714 375 81 386 
715 103 380 385 
716 204 377 379 
717 378 310 379 
718 118 378 379 
719 302 381 382 
720 381 265 382 
721 211 213 373 
722 204 211 377 
723 213 215 372 
724 203 279 371 
725 203 371 376 
726 216 269 375 
727 210 203 376 
728 213 372 373 
729 377 248 379 
730 211 373 377 
731 99 248 377 
732 310 204 379 
733 118 270 378 
734 269 306 374 
735 371 315 376 
736 302 158 381 
737 265 266 382 
738 124 315 371 
739 307 81 375 
740 122 307 374 
741 103 300 380 
742 150 321 372 
743 321 99 373 
744 374 307 375 
745 372 321 373 
746 269 374 375 
747 248 118 379 
748 315 86 376 
749 373 99 377 
750 220 310 378 
751 267 265 381 
752 286 322 380 
753 169 302 382 
754 216 375 386 
755 380 322 385 
756 53 6 384 
757 6 383 384 
758 6 54 383 
759 201 216 386 
760 322 207 385 
761 209 208 387 
762 274 277 391 
763 237 239 400 
764 357 168 406 
765 94 275 388 
766 142 143 389 
767 347 150 401 
768 270 344 402 
769 300 346 403 
770 228 230 390 
771 345 44 394 
772 344 17 396 
773 346 62 395 
774 9 347 393 
775 36 348 397 
776 233 235 392 
777 199 80 393 
778 200 35 397 
779 91 26 398 
780 45 186 394 
781 63 187 395 
782 18 188 396 
783 112 138 399 
784 343 144 400 
785 239 343 400 
786 275 273 404 
787 361 185 404 
788 277 349 391 
789 260 259 406 
790 188 344 396 
791 186 345 394 
792 187 346 395 
793 347 199 393 
794 348 200 397 
795 259 357 406 
796 81 364 386 
797 365 217 383 
798 217 367 384 
799 369 103 385 
800 152 343 405 
801 273 361 404 
802 215 355 401 
803 353 220 402 
804 354 286 403 
805 220 378 402 
806 150 372 401 
807 378 270 402 
808 286 380 403 
809 372 215 401 
810 380 300 403 
$EndElements
